<svg width="909" height="303" viewBox="0 0 909 303" fill="none" xmlns="http://www.w3.org/2000/svg">
<path fill-rule="evenodd" clip-rule="evenodd" d="M276.432 9.504L279.998 51.084H286.733C285.723 23.9936 316.652 23.9778 315.658 51.084H320.808V53.46H315.261L317.639 68.904H333.884V72.468C328.998 74.3173 324.112 76.1653 319.224 78.012V82.368H339.035V86.724C332.961 88.5733 326.885 90.4213 320.808 92.268C321.866 99.396 322.923 106.524 323.978 113.652H333.091V130.68H342.204V127.116H338.638V112.86H346.563V130.68H352.506V122.364H350.129V112.86C351.979 112.991 353.828 113.123 355.676 113.256V130.68H362.016V121.176H358.846V107.712H366.374V130.68H379.846C379.976 112.86 380.108 95.04 380.242 77.22H381.43L381.827 77.616V130.68H396.487V77.616C396.487 73.2956 394.993 61.9978 398.072 60.588V130.68H412.336V70.884C413.394 71.0147 414.448 71.1493 415.506 71.28C417.356 91.076 419.205 110.876 421.053 130.68C425.019 130.541 435.19 129.452 436.902 131.868C437.032 138.335 437.164 144.803 437.298 151.272C453.939 151.403 470.58 151.535 487.222 151.668C490.289 156.574 490.435 164.637 492.373 170.676C498.62 170.518 504.865 171.049 510.995 172.26C514.244 175.123 519.498 192.622 520.504 198H553.787C553.288 180.723 564.743 182.881 581.126 183.348C583.02 171.234 594.673 164.538 606.485 171.864C612.222 169.14 619.671 165.465 626.692 163.944V164.34C626.561 164.605 626.426 164.867 626.296 165.132C618.597 167.445 615.59 172.826 608.466 174.636C609.258 177.539 610.051 180.443 610.843 183.348C617.377 183.178 627.817 182.16 631.843 184.932C637.093 188.547 637.422 214.466 634.22 221.76C639.24 221.629 644.259 221.497 649.277 221.364C647.145 193.335 675.063 197.604 701.974 197.604C713.465 197.735 724.955 197.867 736.446 198C742.86 199.533 745.396 205.583 750.71 206.712L865.218 184.932C871.752 183.419 902.776 176.062 908.406 178.2C908.01 178.727 907.614 179.257 907.217 179.784C899.951 183.13 893.044 192.686 888.199 198.792C873.891 216.822 859.746 234.662 846.199 253.836C842.7 258.79 830.477 274.357 830.35 280.764C833.548 283.758 846.152 287.781 841.444 295.416C837.149 302.378 802.436 299.772 789.936 299.772H633.824C456.201 300.037 278.562 300.301 100.905 300.564C90.4012 298.057 77.9083 295.471 65.6413 293.436C54.1509 293.567 42.6604 293.699 31.17 293.832V289.476H42.2642V282.348C38.3139 282.19 32.1803 279.624 29.9813 281.556C28.5272 288.549 27.0743 295.545 25.6229 302.544H10.5664C8.98152 294.759 7.39663 286.971 5.81174 279.18H3.43441C3.23234 260.433 -2.65553 241.358 1.4533 221.76H7.39663C7.52739 211.203 7.65946 200.643 7.79285 190.08C8.45455 189.553 9.11227 189.023 9.77397 188.496H12.1513C13.4192 189.138 13.8115 189.229 14.5286 190.476C16.5177 193.953 13.9185 200.257 15.3211 204.732C18.8871 210.407 22.4531 216.083 26.0191 221.76H26.4153C26.2013 216.933 25.3772 208.941 28.3964 207.108H30.7737C31.3007 207.373 31.8317 207.635 32.3586 207.9C32.4894 212.521 32.6215 217.141 32.7549 221.76H37.1133C36.8993 216.933 36.0752 208.941 39.0944 207.108H41.4717C41.9987 207.373 42.5297 207.635 43.0566 207.9C43.1874 212.521 43.3195 217.141 43.4529 221.76H69.2073C74.7544 215.689 80.3015 209.617 85.8486 203.544H119.131V178.596C117.677 178.465 116.227 178.331 114.773 178.2V173.844H119.131C119.02 170.177 118.767 165.195 119.924 162.756C124.429 162.645 142.607 161.893 144.093 163.944C144.224 167.243 144.356 170.543 144.49 173.844H150.433C150.302 175.428 150.17 177.012 150.037 178.596H146.074V203.544H147.659C150.433 190.611 153.206 177.675 155.98 164.736C157.204 159.552 156.344 152.234 161.923 151.272V140.58H147.263C147.394 137.016 147.526 133.452 147.659 129.888H161.923V123.156H169.848V121.176C163.37 121.414 161.531 120.075 158.754 116.82C158.032 106.952 168.564 105.787 178.168 108.504C179.773 110.611 181.053 111.613 181.338 115.236C179.844 118.642 175.87 119.75 175.395 123.156H188.074V151.272H211.847C211.713 141.455 209.379 123.211 213.432 116.424C216.507 115.45 218.888 114.46 223.338 114.444C230.351 114.416 239.492 113.478 244.734 115.632C255.301 119.98 258.538 143.091 266.526 151.272H270.488C270.619 144.805 270.751 138.337 270.884 131.868C271.15 131.472 271.411 131.076 271.677 130.68H275.639V113.652H278.016C280.79 93.5906 283.564 73.5266 286.337 53.46H262.96V51.084C264.676 50.9533 266.393 50.8213 268.111 50.688C269.3 36.9626 270.488 23.2346 271.677 9.504H249.092V7.92H271.677C272.073 5.27868 272.469 2.63868 272.866 0C273.131 0.13068 273.393 0.26532 273.658 0.396C274.977 2.90268 276.298 5.41068 277.62 7.92H282.771V9.504H276.432Z" fill="black"/>
</svg>
