<svg width="949" height="186" viewBox="0 0 949 186" fill="none" xmlns="http://www.w3.org/2000/svg">
<path fill-rule="evenodd" clip-rule="evenodd" d="M479.16 22.572C484.367 22.477 489.804 21.6097 493.02 23.76C500.049 28.4605 497.534 59.5228 497.376 72.072C502.433 73.6164 507.803 77.2319 510.048 81.576C510.313 82.8947 510.575 84.2173 510.84 85.536H900.108C920.617 90.8305 930.133 92.1254 940.5 107.712C957.671 133.527 945.003 165.774 924.66 178.2C912.863 185.407 895.471 184.932 875.952 184.932H318.384C291.761 184.936 265.067 185.985 242.352 181.368C232.056 180.311 221.76 179.255 211.464 178.2C181.791 172.767 151.024 170.989 123.156 163.944C118.231 162.701 87.573 156.361 87.516 156.42C83.952 164.997 80.388 173.577 76.824 182.16H20.196C18.378 174.802 22.5348 146.195 19.008 142.164C12.853 139.752 3.96238 141.126 0 136.62C2.73636 129.302 36.135 129.369 48.708 129.492V78.408C48.708 71.6404 47.5628 62.7383 51.48 59.796C55.4432 56.8181 64.4779 57.816 71.28 57.816C79.4772 57.816 91.9274 56.2993 97.02 59.796C102.739 63.7243 109.808 99.6613 111.276 109.296L148.5 102.168C183.047 94.648 220.601 93.6382 257.4 87.516C269.937 86.8547 282.477 86.1947 295.02 85.536H311.652C321.904 82.6214 332.181 77.1844 343.728 74.448C346.975 62.073 346.274 31.09 356.4 26.928L378.972 25.74C378.544 17.6933 376.339 -1.98 385.704 4.356C385.835 11.3494 385.967 18.3454 386.1 25.344H395.604C395.426 19.5941 395.358 14.2124 397.584 11.088C398.903 11.2187 400.225 11.3533 401.544 11.484C402.997 14.6124 402.815 20.1326 402.732 24.948H407.88C407.793 19.6812 407.551 13.1551 408.672 9.108C410.933 8.35164 412.806 7.76952 414.216 9.9C415.962 12.6878 415.107 20.3306 415.008 24.552C432.432 24.0253 449.856 23.4973 467.28 22.968C467.411 15.9746 467.543 8.97864 467.676 1.98C468.072 1.71468 468.468 1.45332 468.864 1.188C469.26 1.31868 469.656 1.45332 470.052 1.584L470.844 2.376V22.968C472.559 22.8373 474.275 22.7053 475.992 22.572C475.83 16.9963 474.226 2.50668 477.576 0C478.328 0.54252 478.225 0.38412 478.764 1.188C478.896 8.316 479.028 15.444 479.16 22.572Z" fill="black"/>
</svg>
