<svg width="1116" height="325" viewBox="0 0 1116 325" fill="none" xmlns="http://www.w3.org/2000/svg">
<path fill-rule="evenodd" clip-rule="evenodd" d="M531.432 0H541.332V2.772H537.768V4.356H543.708C543.577 5.148 543.443 5.94 543.312 6.732H537.768C537.768 11.0999 537.808 15.9509 538.956 18.612C540.283 21.6889 537.772 27.1062 537.768 31.284C544.235 31.4147 550.703 31.5467 557.172 31.68V38.412H549.648C547.668 40.2613 545.688 42.1093 543.708 43.956C548.591 44.0867 553.475 44.2187 558.36 44.352C558.625 47.52 558.889 50.688 559.152 53.856C564.969 53.856 543.601 56.0617 538.56 54.648C536.267 54.0065 533.163 139.139 538.956 139.788C548.416 140.849 556.321 141.38 571.428 140.976C580.243 140.738 599.786 141.511 591.624 139.788C586.516 138.711 591.129 154.499 592.812 154.044C593.687 153.806 609.02 152.195 612.612 151.668C612.992 151.613 613.4 115.569 614.988 118.8C615.42 119.679 612.557 105.043 614.196 99H626.472V127.116H629.64V99H634.788V61.38H636.372V99H643.896V127.116H647.46V99H652.212V61.38H653.796V99H661.716V127.116H667.26C667.921 135.828 668.581 144.54 669.24 153.252H676.368C676.499 139.657 676.631 126.061 676.764 112.464H671.616C671.747 110.219 671.879 107.975 672.012 105.732H676.764V94.248H672.408V85.14H676.764C676.895 81.0493 677.027 76.9573 677.16 72.864H680.724V85.14H699.336V93.852C706.816 93.654 709.454 99.1148 707.652 105.732H710.028V112.464H700.128C700.92 116.293 701.712 120.121 702.504 123.948H730.62L761.508 97.812C762.035 98.208 762.565 98.604 763.092 99C753.327 107.181 743.559 115.365 733.788 123.552V123.948C741.573 124.079 749.361 124.211 757.152 124.344L758.34 140.976C761.338 140.837 767.428 140.259 769.032 141.768C769.955 146.651 770.879 151.535 771.804 156.42C775.681 174.113 777.312 192.61 777.348 215.82H874.368C880.763 215.82 905.161 217.301 908.028 214.632C902.5 213.785 896.041 204.562 900.504 198C902.821 194.594 915.615 192.246 921.888 194.832C923.959 195.687 924.818 197.691 926.244 199.188H932.184V201.168H976.14V202.356H932.184V204.336C930.6 204.467 929.016 204.599 927.432 204.732C927.563 205.128 927.697 205.524 927.828 205.92L1115.93 197.604L1113.16 200.376C1108.8 205.259 1104.44 210.143 1100.09 215.028L1067.22 252.648C1057.59 264.655 1046.25 272.472 1042.67 291.06C1040.13 304.239 1048.96 308.258 1049.8 318.384C1049.15 319.651 1049.06 320.043 1047.82 320.76C1042.09 326.153 1000.58 323.694 991.98 321.552C972.798 316.776 957.128 308.801 936.936 305.316H297.792C284.641 301.752 268.932 298.873 253.44 296.208L136.013 295.97C110.078 295.918 84.1445 295.865 58.212 295.812L58.608 290.664H72.468V281.952C60.588 281.291 48.708 280.631 36.828 279.972C34.98 289.08 33.132 298.188 31.284 307.296C25.08 307.165 18.876 307.033 12.672 306.9L7.128 277.992C5.3258 278.004 4.79358 278.043 3.96 277.2C3.696 271.391 3.432 265.583 3.168 259.776C2.112 251.46 1.056 243.144 0 234.828H5.94V231.264H0V227.304H5.94V215.424C10.692 215.555 15.444 215.687 20.196 215.82V227.304H29.304V215.424C34.056 215.555 38.808 215.687 43.56 215.82V227.304H63.756V224.928H59.004V222.948C55.4816 223.126 46.9312 223.974 45.54 221.76H59.004V219.78H65.736C68.4795 211.579 96.9535 211.706 91.476 227.304H100.98C101.112 221.495 101.244 215.687 101.376 209.88H130.68V204.336H127.908V201.168C123.288 201.037 118.668 200.905 114.048 200.772C113.916 200.376 113.784 199.98 113.652 199.584C116.802 194.27 125.763 192.349 134.244 192.456V189.684H148.104V192.456C153.384 192.587 158.664 192.719 163.944 192.852C164.076 193.248 164.208 193.644 164.34 194.04C164.604 194.963 164.868 195.889 165.132 196.812C164.604 197.735 164.076 198.661 163.548 199.584C160.944 200.412 159.034 201.152 155.232 201.168C155.1 202.225 154.968 203.279 154.836 204.336H151.668V209.88H220.176V191.268H329.472V198.792H360.36V160.38C362.34 160.249 364.32 160.117 366.3 159.984C369.995 147.312 373.691 134.64 377.388 121.968H397.188V105.732H401.544V121.968H415.8C415.931 117.085 416.063 112.201 416.196 107.316H420.948C421.079 101.376 421.211 95.436 421.344 89.496C423.193 89.6267 425.041 89.7587 426.888 89.892V107.316C428.603 107.447 430.319 107.579 432.036 107.712V118.008H440.748V137.016H443.124V118.008H453.816V137.016H455.4V131.076H460.548V137.016H462.924V131.076H467.676V137.016H471.636V160.38H491.436V177.408H498.564C499.621 165.528 500.677 153.648 501.732 141.768C494.208 123.817 486.684 105.865 479.16 87.912H468.468V85.932H481.932C481.999 82.4234 482.815 82.273 483.12 79.2C479.425 79.0693 475.729 78.9373 472.032 78.804C465.292 76.3369 463.296 65.4073 470.052 61.38C477.164 57.1388 504.468 59.9821 507.276 64.944C513.101 75.2479 501.942 79.6475 491.832 79.2C492.097 82.273 492.905 82.4274 493.02 85.932H507.276C508.333 75.24 509.389 64.548 510.444 53.856H504.504C504.635 50.5573 504.767 47.2573 504.9 43.956H529.452V43.56C528.066 39.8297 525.658 36.337 527.076 31.284C531.535 31.2325 531.4 29.9495 535.392 29.7V23.364H533.412V18.612H535.392V6.732H529.848V4.356H535.392V2.772H531.432V0Z" fill="black"/>
</svg>
