<svg width="1460" height="340" viewBox="0 0 1460 340" fill="none" xmlns="http://www.w3.org/2000/svg">
<path fill-rule="evenodd" clip-rule="evenodd" d="M448.664 13.3197C446.162 13.1172 444.027 12.9235 443.12 14.5084C443.96 15.3321 443.849 15.5346 443.912 17.2819H434.012C434.804 23.3573 435.596 29.4327 436.388 35.5082H460.148V39.0742C453.353 42.967 448.11 51.9938 438.368 52.1495C438.634 54.6589 438.898 57.1683 439.16 59.6777H468.86C468.979 61.7052 469.015 63.4858 468.068 64.4324C464.061 68.7857 449.163 80.9945 441.932 81.0737C442.459 86.2246 442.987 91.3755 443.516 96.5264H481.532V92.1679C473.759 89.5216 469.945 57.9696 475.988 48.9797C481.94 47.3338 494.331 47.3251 500.936 48.5835C507.72 53.6036 504.536 88.8444 498.56 91.7717L491.036 92.1679V96.5264H513.608C513.739 83.8473 513.871 71.1682 514.004 58.489C514.543 57.6748 514.448 57.8515 515.192 57.3004L516.38 58.0928V96.5264H521.528C521.398 88.8642 519.204 72.3509 522.716 67.2059L523.904 67.6022C524.035 77.2436 524.167 86.885 524.3 96.5264H538.16V101.281H530.24V110.79H523.112C522.982 112.904 522.85 115.017 522.716 117.13H527.864V151.601H508.856V153.979H531.824C531.836 165.492 514.666 171.222 508.856 178.544V199.94H582.512C582.247 199.28 581.986 198.62 581.72 197.959L566.672 197.563C566.938 197.167 567.199 196.771 567.464 196.374L552.812 195.582C550.702 190.299 548.59 185.016 546.476 179.733H551.624L561.128 190.035C586.191 189.565 617.012 179.685 635.972 193.601V195.582C632.844 195.474 628.056 195.564 626.468 197.167C626.761 198.635 626.654 198.708 626.072 199.94H673.988C673.723 199.544 673.462 199.148 673.196 198.752V197.959H658.94V196.374L644.288 195.582C642.178 190.563 640.066 185.544 637.952 180.525C638.083 180.261 638.218 179.997 638.348 179.733L643.1 180.129C646.268 183.431 649.436 186.733 652.604 190.035C678.016 189.573 706.619 180.551 727.052 192.808C727.183 193.733 727.318 194.658 727.448 195.582C724.395 195.549 720.091 195.74 717.944 196.771C718.317 198.312 718.154 198.694 717.548 199.94H765.464C765.334 199.28 765.199 198.62 765.068 197.959H750.416V196.374L736.16 195.582C734.351 190.344 730.545 186.042 729.824 179.733H734.972C737.721 183.643 741.439 190.053 748.04 190.035C767.638 184.55 804.613 183.038 818.924 193.205C819.055 193.997 819.19 194.789 819.32 195.582C816.774 195.488 811.594 195.445 810.212 196.771C809.947 197.827 809.686 198.884 809.42 199.94H857.336C857.071 199.28 856.81 198.62 856.544 197.959L841.496 197.563C841.762 197.167 842.023 196.771 842.288 196.374L827.636 195.582C825.526 190.299 823.414 185.016 821.3 179.733H826.448L835.952 190.035C861.019 189.565 891.836 179.685 910.796 193.601V195.582C907.668 195.474 902.88 195.564 901.292 197.167C901.585 198.635 901.479 198.708 900.896 199.94H1040.29C1040.16 199.28 1040.02 198.62 1039.89 197.959H1025.24V196.374L1010.98 195.582C1009.17 190.344 1005.37 186.042 1004.65 179.733H1009.8C1012.54 183.643 1016.26 190.053 1022.86 190.035C1042.47 184.547 1079.43 183.034 1093.75 193.205C1093.88 193.997 1094.01 194.789 1094.14 195.582C1091.6 195.488 1086.42 195.445 1085.04 196.771C1084.77 197.827 1084.51 198.884 1084.24 199.94H1132.16C1131.9 199.28 1131.63 198.62 1131.37 197.959L1116.32 197.563C1116.59 197.167 1116.85 196.771 1117.11 196.374L1102.46 195.582C1100.35 190.299 1098.24 185.016 1096.12 179.733H1101.27L1110.78 190.035C1135.84 189.565 1166.66 179.685 1185.62 193.601V195.582C1182.58 195.499 1177.68 195.589 1176.12 197.167C1176.41 198.635 1176.3 198.708 1175.72 199.94H1315.11C1314.98 199.28 1314.85 198.62 1314.72 197.959H1300.06V196.374L1285.81 195.582C1284 190.344 1280.19 186.042 1279.47 179.733H1284.62C1287.38 183.629 1291.09 190.053 1297.69 190.035C1317.29 184.547 1354.25 183.034 1368.57 193.205C1368.7 193.997 1368.84 194.789 1368.97 195.582C1366.42 195.488 1361.24 195.445 1359.86 196.771C1359.6 197.827 1359.33 198.884 1359.07 199.94L1458.86 200.337C1459.78 206.832 1460.67 218.56 1458.07 224.902C1454.18 234.394 1443.4 237.942 1435.1 243.129C1426.93 248.237 1418.5 254.685 1411.74 261.355C1407.34 265.692 1398.95 284.177 1396.29 285.524L393.224 285.921L6.72839 285.524C-1.48742 282.196 1.58039 262.271 1.58039 250.657C1.58039 220.838 -6.00856 199.437 26.5284 199.94C26.4757 197.139 26.9149 196.349 27.7164 194.789L17.0244 193.205V192.808C17.1564 191.223 17.2884 189.639 17.4204 188.054H18.6084C19.5501 194.481 34.0674 192.27 41.1804 192.016C43.0907 188.427 46.4167 190.196 49.1004 187.657C50.2539 186.567 49.9953 183.27 51.0804 182.11C52.2324 183.454 52.4696 185.716 53.0604 187.657C57.3277 188.249 58.2373 190.88 60.9804 192.016H81.5724C81.9803 190.041 82.206 188.823 83.9484 188.054C84.2124 189.771 84.4764 191.488 84.7404 193.205H83.9484L74.0484 195.186C75.392 196.528 75.9916 197.489 75.2364 199.94H99.3924C99.3397 197.139 99.7789 196.349 100.58 194.789L89.8884 193.205V192.808C90.0204 191.223 90.1524 189.639 90.2844 188.054H91.4724C91.7364 189.374 92.0004 190.695 92.2644 192.016C106.436 192.417 120.544 193.439 123.152 182.11C125.46 183.026 125.251 185.271 125.924 187.657C130.178 188.249 131.078 190.881 133.844 192.016H154.436C154.844 190.041 155.07 188.823 156.812 188.054C156.88 190.95 157.271 192.336 156.812 193.601L146.912 195.186C148.256 196.528 148.856 197.489 148.1 199.94H171.464C171.412 197.139 171.851 196.349 172.652 194.789L161.96 193.205V192.808C162.092 191.223 162.224 189.639 162.356 188.054H163.544L164.732 192.016H186.116C188.91 190.849 189.634 188.289 194.036 187.657C194.274 185.367 194.761 183.378 196.016 182.11C197.193 183.442 197.571 185.55 197.996 187.657C200.756 188.113 225.682 198.851 227.696 188.054H228.884C229.148 189.771 229.412 191.488 229.676 193.205H228.884L219.38 195.186C220.433 196.472 220.636 197.303 220.568 199.94H366.692C366.768 188.804 369.587 153.749 366.296 146.45L352.04 140.507V138.13L362.336 137.733C358.903 136.281 355.471 134.828 352.04 133.375C352.171 132.583 352.306 131.79 352.436 130.998L362.336 130.601C358.903 129.149 355.471 127.696 352.04 126.243V124.262H373.028C373.82 110.658 374.612 97.0547 375.404 83.451H373.028C370.383 79.8486 366.526 75.5765 361.94 73.9417V71.9606H362.732L374.612 71.1682C373.044 70.0191 373.412 69.1502 374.216 67.6022H378.968C379.099 63.9041 379.231 60.206 379.364 56.5079C379.891 56.2437 380.422 55.9798 380.948 55.7155L383.324 56.9042V67.6022C385.605 67.5316 387.177 67.7559 388.472 68.3946V68.7908C387.926 72.0482 386.766 71.0429 384.116 71.9606V72.3568H396.392C393.474 76.1768 385.997 80.5665 384.908 85.4322C385.435 93.7528 385.963 102.073 386.492 110.394H399.956V96.5264C403.564 96.6599 412.185 97.6073 414.212 95.7339C414.874 90.8472 415.534 85.9605 416.192 81.0737C404.261 81.0341 398.634 68.1042 389.264 64.4324V59.6777H418.964C419.23 57.1683 419.494 54.6589 419.756 52.1495C409.789 52.1324 405.29 42.4916 397.976 39.0742V35.5082H421.736C422.528 29.4327 423.32 23.3573 424.112 17.2819H409.856C409.987 13.4518 410.119 9.62163 410.252 5.79148L413.024 6.18771V14.5084H424.508C424.639 13.0558 424.774 11.6025 424.904 10.1499L417.38 9.75371C412.965 -0.914578 429.28 -1.60995 435.992 2.22548V8.56504H448.664V13.3197ZM418.964 2.22548L417.776 3.41415C417.907 5.26319 418.039 7.11222 418.172 8.96126C426.065 8.85428 427.851 7.24086 434.804 8.96126V8.16882C435.755 6.39176 435.383 3.48666 434.012 2.62171L418.964 2.22548ZM433.616 14.5084C436.376 14.7164 440.111 15.0563 441.14 13.3197L435.992 12.9235V9.35748C435.07 9.62176 434.143 9.88565 433.22 10.1499C433.351 11.6025 433.486 13.0558 433.616 14.5084ZM401.54 39.8666C405.219 43.9081 412.692 50.8586 419.756 50.9608V50.1684C420.283 46.7344 420.811 43.3005 421.34 39.8666H401.54ZM437.972 50.9608C445.283 51.0464 453.131 44.0931 456.584 39.8666H436.784C437.18 43.5647 437.576 47.2627 437.972 50.9608ZM416.588 79.4888C417.115 74.7342 417.643 69.9795 418.172 65.2248H393.62C397.046 69.3162 409.678 79.4579 416.588 79.4888ZM439.952 65.2248C440.479 69.9795 441.007 74.7342 441.536 79.4888C448.502 79.5657 461.281 69.2409 464.9 65.2248H439.952ZM384.512 73.1493C384.778 76.319 385.042 79.4888 385.304 82.6586C388.342 79.4888 391.378 76.319 394.412 73.1493H384.512ZM375.404 82.6586C375.535 79.885 375.667 77.1115 375.8 74.3379H365.9C367.916 77.2343 371.203 82.0829 375.404 82.6586ZM28.9044 195.186C28.7724 196.771 28.6404 198.355 28.5084 199.94H50.2884L49.8924 198.355H49.1004L28.9044 195.186ZM72.8604 195.186C67.4186 195.344 53.9985 196.148 51.8724 199.94H73.6524C73.3884 198.355 73.1244 196.771 72.8604 195.186ZM101.768 195.186C101.636 196.771 101.504 198.355 101.372 199.94H122.756V198.355H121.964L101.768 195.186ZM145.724 195.186C140.344 195.354 127.256 196.072 124.736 199.544V199.94H146.516C146.252 198.355 145.988 196.771 145.724 195.186ZM173.84 195.186C173.708 196.771 173.576 198.355 173.444 199.94H195.224C195.092 199.412 194.96 198.884 194.828 198.355H194.036L173.84 195.186ZM218.192 195.186C212.593 195.247 199.048 196.152 196.808 199.94H218.588C218.456 198.355 218.324 196.771 218.192 195.186ZM607.856 196.374C607.987 196.639 608.122 196.903 608.252 197.167C608.122 197.431 607.987 197.695 607.856 197.959H588.452C588.187 198.62 587.926 199.28 587.66 199.94H620.924C620.275 198.745 620.259 198.228 618.944 197.563C616.054 196.454 612.185 196.311 607.856 196.374ZM699.332 196.374C699.463 196.639 699.598 196.903 699.728 197.167C699.598 197.431 699.463 197.695 699.332 197.959H679.928C679.798 198.62 679.663 199.28 679.532 199.94H712.4C712.135 199.148 711.874 198.355 711.608 197.563C707.961 196.956 704.251 196.362 699.332 196.374ZM790.808 196.374C790.939 196.903 791.074 197.431 791.204 197.959H771.8C771.535 198.62 771.274 199.28 771.008 199.94H803.876C803.611 199.148 803.35 198.355 803.084 197.563C799.437 196.956 795.727 196.362 790.808 196.374ZM882.68 196.374C882.811 196.639 882.946 196.903 883.076 197.167C882.946 197.431 882.811 197.695 882.68 197.959H863.276C863.011 198.62 862.75 199.28 862.484 199.94H895.748C895.099 198.745 895.083 198.228 893.768 197.563C890.878 196.454 887.009 196.311 882.68 196.374ZM1065.63 196.374C1065.76 196.903 1065.9 197.431 1066.03 197.959H1046.62C1046.36 198.62 1046.1 199.28 1045.83 199.94H1078.7C1078.44 199.148 1078.17 198.355 1077.91 197.563C1074.26 196.956 1070.55 196.362 1065.63 196.374ZM1157.5 196.374C1157.64 196.639 1157.77 196.903 1157.9 197.167C1157.77 197.431 1157.64 197.695 1157.5 197.959H1138.1C1137.84 198.62 1137.57 199.28 1137.31 199.94H1170.57C1169.92 198.745 1169.91 198.228 1168.59 197.563C1165.7 196.454 1161.83 196.311 1157.5 196.374ZM1340.46 196.374C1340.59 196.903 1340.72 197.431 1340.85 197.959H1321.45C1321.18 198.62 1320.92 199.28 1320.66 199.94H1353.52C1353.26 199.148 1353 198.355 1352.73 197.563C1349.09 196.956 1345.37 196.362 1340.46 196.374ZM72.0684 311.279C72.5879 325.353 69.138 328.713 55.4364 328.713C41.5308 328.713 37.8884 325.543 38.4084 311.279C29.0364 311.148 19.6644 311.016 10.2924 310.883V310.486C14.5209 300.327 15.5156 294.116 24.5484 289.09C36.1599 282.632 74.305 286.317 91.8684 286.317H1372.14C1408.16 286.313 1445.96 278.264 1451.73 310.09C1452.87 316.366 1450.2 322.127 1448.17 325.543C1437.14 344.066 1413.17 339.415 1384.81 339.411H196.412C189.514 330.274 174.553 314.972 162.356 311.675C132.264 311.544 102.168 311.412 72.0684 311.279Z" fill="black"/>
</svg>
