<svg width="909" height="226" viewBox="0 0 909 226" fill="none" xmlns="http://www.w3.org/2000/svg">
<path fill-rule="evenodd" clip-rule="evenodd" d="M309.45 0H314.204C316.055 6.73578 317.904 13.4716 319.751 20.2073H350.26V16.2451C348.069 16.3006 346.742 16.0628 345.506 15.4527C345.395 12.3542 345.363 8.68519 346.298 6.73578C352.721 6.6288 363.597 5.27372 368.487 7.52822C368.598 10.6267 368.629 14.2957 367.694 16.2451H363.336V20.2073C367.837 20.0687 373.681 19.7596 376.411 21.396V22.9809C375.127 24.2171 375.139 24.4945 372.449 24.5658C379.315 38.8298 386.183 53.0938 393.052 67.3578H437.033V66.5653L440.599 54.6787C441.788 54.8094 442.976 54.9441 444.165 55.0749C444.296 59.1679 444.428 63.2622 444.561 67.3578C444.692 63.1301 444.824 58.9037 444.958 54.6787C446.146 54.8094 447.335 54.9441 448.524 55.0749C449.581 59.1679 450.638 63.2622 451.693 67.3578C458.294 67.4885 464.898 67.6206 471.504 67.754C471.635 68.1502 471.77 68.5464 471.901 68.9427C472.554 70.6425 471.631 71.4349 469.523 71.7162C474.409 82.9412 479.296 94.1675 484.184 105.395H533.315V100.244C532.126 100.113 530.938 99.9788 529.749 99.848C529.88 97.3399 530.012 94.8305 530.145 92.3198C536.219 92.4505 542.295 92.5826 548.372 92.716C548.241 95.2241 548.109 97.7335 547.975 100.244H544.409V105.395C548.613 105.256 553.372 105.161 555.9 106.584C555.131 117 566.309 125.266 570.164 134.319H598.692L605.824 117.678C603.153 115.162 597.024 108.085 603.446 104.603C601.893 109.112 605.408 115.939 609.786 114.112C600.15 111.121 603.114 92.5456 615.333 95.4896C620.286 96.6822 627.977 106.069 625.239 112.923C624.379 115.075 622.057 116.2 620.484 117.678C622.731 123.225 624.976 128.772 627.22 134.319H647.031V133.527C650.102 126.815 650.268 116.224 657.729 114.112C662.789 112.682 672.369 115.542 674.37 114.508C676.617 112.793 678.862 111.076 681.106 109.357C681.633 109.754 682.164 110.15 682.691 110.546C686.784 107.376 690.878 104.206 694.974 101.037L695.766 101.829C695.37 102.356 694.974 102.887 694.578 103.414C690.588 105.054 677.148 117.599 677.936 119.263C679.85 123.744 682.865 127.302 681.502 134.319C695.897 134.45 710.293 134.582 724.69 134.716V139.074C726.406 138.943 728.123 138.811 729.841 138.678C732.044 123.99 739.561 119.409 756.388 123.225L763.124 117.678C764.824 118.498 764.031 119.045 765.501 117.678C769.333 114.904 773.163 112.131 776.992 109.357H777.388C776.635 111.996 761.23 124.691 758.766 126.395C759.689 127.98 760.613 129.565 761.539 131.15C810.667 128.903 859.798 126.658 908.934 124.414C895.331 139.866 881.728 155.319 868.123 170.772C862.699 177.515 856.335 182.104 852.67 190.979C850.974 195.084 848.906 202.644 850.689 208.413C851.886 212.292 857.211 216.884 855.444 221.884C852.595 227.119 819.463 226.025 811.859 224.262C795.614 220.49 782.563 213.734 765.898 210.79H254.375C244.259 208.302 232.083 205.687 220.3 203.658H62.9993V198.904H74.0936V192.168C64.7189 191.506 55.3417 190.846 45.9618 190.187C44.5076 197.58 43.0548 204.976 41.6033 212.375H26.5469C24.962 204.585 23.3771 196.793 21.7922 188.998H11.4904C9.82631 177.191 5.36881 165.169 1.18867 154.923V154.527H5.15089V151.357H0.396222C0.265469 150.299 0.130753 149.245 0 148.187H5.15089V144.621H65.7729V148.187H97.0744C97.2052 143.563 97.3373 138.941 97.4707 134.319C99.0556 134.189 100.64 134.057 102.225 133.923C106.144 124.418 115.467 119.39 129.961 123.225C130.092 126.922 130.224 130.62 130.357 134.319H145.414C150.564 126.264 155.715 118.208 160.866 110.15C161.195 108.862 160.133 107.475 160.866 105.791C162.32 105.661 163.771 105.526 165.225 105.395V103.018H163.244V99.0556H173.149V103.018H171.168V105.395C176.196 105.494 198.721 106.532 200.885 104.603C217.657 77.925 234.43 51.2461 251.205 24.5658C247.995 24.7005 245.808 24.4509 244.073 23.3771C244.469 22.3192 244.865 21.2652 245.262 20.2073H261.903V16.2451C259.712 16.3006 258.384 16.0628 257.148 15.4527C256.998 12.4929 256.57 8.33652 258.337 7.132C262.41 5.41636 276.662 5.88786 280.129 7.52822C279.998 10.4325 279.866 13.3382 279.733 16.2451H275.374V20.2073H297.959C299.809 13.4716 301.659 6.73578 303.506 0C305.091 0.130753 306.676 0.262827 308.261 0.396222V20.2073H309.45V0ZM622.861 107.376C622.315 111.576 619.945 112.484 617.314 114.508C620.258 113.775 621.839 112.381 622.861 109.754V107.376ZM65.7729 151.357V154.527C76.2054 154.396 86.6393 154.264 97.0744 154.13V151.357H65.7729ZM83.6029 192.96V198.904C109.353 198.773 135.108 198.641 160.866 198.507C135.116 196.658 109.361 194.809 83.6029 192.96Z" fill="black"/>
</svg>
